# xmcd
#
# Track frame offsets:
#	150
#	12047
#	29493
#	42431
#	56702
#	71271
#	82739
#	95386
#	110280
#	123807
#	138332
#	156855
#	173055
#	191058
#	206055
#	217790
#	232033
#
# Disc length: 3342 seconds
#
# Revision: 0
# Processed by: cddbd v1.5.2PL0 Copyright (c) Steve Scherf et al.
# Submitted via: EasyCDDAExtractor 16.0.8.2
#
DISCID=dc0d0c11
DTITLE=Συλλογικός δίσκος - Τα 45άρια του τζουκ μποξ 2
DYEAR=2014
DGENRE=Ποικίλη
TTITLE0=Μενιδιάτης Μιχάλης - Μην περιμένεις πια [Απ. Καλδάρας]
TTITLE1=Περπινιάδης Βαγγέλης - Ανεβαίνω σκαλοπάτια [Απ. Καλδάρας]
TTITLE2=Λαμπράκη Χαρούλα-Πανταζής Λευτέρης - Με παράσυρε το ρέμα [Β. Τσιτσάνης
TTITLE2=]
TTITLE3=Αγγελόπουλος Μανώλης - Η διπρόσωπη [Α. Ρεπάνης-Ε. Παπαγιαννοπούλου]
TTITLE4=Καζαντζίδης Στέλιος - Στο τραπέζι που τα πίνω [Α.Καλδάρας-Ε.Παπαγιαννο
TTITLE4=πούλου]
TTITLE5=Ζαγοραίος Σπύρος - Ο διαβολάκος [Π. Μιχαλόπουλος-Δημ. Σκαρπέλης]
TTITLE6=Κύπριος Στράτος - Λίγο λίγο θα με συνηθίσεις [Α.Καλδάρας-Ε.Παπαγιαννοπ
TTITLE6=ούλου]
TTITLE7=Πουλόπουλος Γιάννης - Η αχάριστη [Β. Τσιτσάνης]
TTITLE8=Μπέλλου Σωτηρία - Ξημερώνει και βραδιάζει [Β. Τσιτσάνης]
TTITLE9=Γαβαλάς Πάνος-Κούρτη Ρία - Μη μού μιλάτε [Βασ. Βασιλειάδης-Γιάννης Γαβ
TTITLE9=αλάς]
TTITLE10=Καζαντζίδης Στέλιος - Γιατί με ξύπνησες πρωΐ [Β. Τσιτσάνης]
TTITLE11=Ντάλμα Ρένα - Μού σπάσανε τον μπαγλαμά [Α.Καλδάρας-Ε.Παπαγιαννοπούλου
TTITLE11=]
TTITLE12=Γλυκερία - Τα λερωμένα τ' άπλυτα [Β. Τσιτσάνης]
TTITLE13=Βαμβακάρης Μάρκος-Σταύρου Σούλα - Πρέπει να ξέρεις μηχανή [Μ. Βαμβακά
TTITLE13=ρης]
TTITLE14=Ζαγοραίος Σπύρος - Βάλτε μου δυό καναβουριές [Μ. Δασκαλάκης]
TTITLE15=Παγιουμτζής Στράτος - Τι σού λέει η μάννα σου για μένα [Κ. Σκαρβέλης]
TTITLE16=Μυτιληναίος Λευτέρης - Τα είδωλα [Π. Ρουμελιώτης-Ηλ. Φιλίππου]
EXTD=
EXTT0=
EXTT1=
EXTT2=
EXTT3=
EXTT4=
EXTT5=
EXTT6=
EXTT7=
EXTT8=
EXTT9=
EXTT10=
EXTT11=
EXTT12=
EXTT13=
EXTT14=
EXTT15=
EXTT16=
PLAYORDER=
